<?xml version="1.0" encoding="iso-8859-1"?>
<!-- Generator: Adobe Illustrator 19.0.0, SVG Export Plug-In . SVG Version: 6.00 Build 0)  -->
<svg version="1.1" id="Capa_1" xmlns="http://www.w3.org/2000/svg" xmlns:xlink="http://www.w3.org/1999/xlink" x="0px" y="0px"
	 viewBox="0 0 512 512" style="enable-background:new 0 0 512 512;" xml:space="preserve">
<circle cx="95.072" cy="243.552" r="28.96"/>
<g>
	<path style="fill:#999999;" d="M80.808,338.68h28.52l2.904-29.032c6.104-1.656,11.848-4.2,17.104-7.448l22.872,18.72l20.168-20.168
		l-19.464-23.792c2.616-4.976,4.632-10.32,5.904-15.952l31.328-3.136v-14.264v-0.12v-14.256l-31.328-3.136
		c-1.272-5.632-3.28-10.976-5.904-15.952l19.464-23.792l-20.168-20.168l-22.872,18.712c-5.256-3.248-10.992-5.792-17.104-7.448
		l-2.904-29.032h-28.52l-2.904,29.072c-6.088,1.672-11.832,4.176-17.08,7.424l-22.896-18.728L17.76,186.352l19.464,23.792
		c-2.616,4.976-4.632,10.328-5.896,15.96L0,229.232v14.264v0.12v14.264l31.328,3.136c1.272,5.632,3.28,10.984,5.896,15.96
		L17.76,300.768l20.168,20.168l22.896-18.728c5.248,3.24,10.992,5.752,17.08,7.424L80.808,338.68z M52.168,243.552
		c0-23.696,19.208-42.904,42.904-42.904s42.904,19.208,42.904,42.904s-19.208,42.904-42.904,42.904S52.168,267.248,52.168,243.552z"
		/>
	<circle style="fill:#999999;" cx="301.416" cy="416.88" r="28.96"/>
</g>
<path d="M287.16,512h28.52l2.904-29.032c6.104-1.656,11.848-4.2,17.104-7.448l22.872,18.72l20.168-20.168l-19.464-23.792
	c2.616-4.976,4.632-10.32,5.904-15.952l31.328-3.136v-14.264v-0.12v-14.264l-31.328-3.136c-1.272-5.632-3.288-10.976-5.904-15.952
	l19.464-23.792l-20.168-20.168l-22.872,18.712c-5.256-3.248-10.992-5.792-17.104-7.448l-2.904-29.032h-28.52l-2.904,29.072
	c-6.088,1.672-11.832,4.176-17.08,7.424l-22.896-18.728l-20.168,20.168l19.464,23.792c-2.616,4.976-4.632,10.328-5.896,15.96
	l-31.328,3.136v14.264v0.12V431.2l31.328,3.136c1.272,5.632,3.28,10.984,5.896,15.96l-19.464,23.792l20.168,20.168l22.896-18.728
	c5.248,3.24,10.992,5.752,17.08,7.424L287.16,512z M258.512,416.872c0-23.696,19.208-42.904,42.904-42.904
	c23.696,0,42.904,19.208,42.904,42.904s-19.208,42.904-42.904,42.904C277.72,459.768,258.512,440.56,258.512,416.872z"/>
<circle cx="372.96" cy="139.128" r="42.352"/>
<path style="fill:#CCCCCC;" d="M352.104,278.264h41.712l4.248-42.456c8.936-2.424,17.328-6.144,25.016-10.896l33.456,27.376
	l29.496-29.496l-28.472-34.8c3.832-7.28,6.776-15.096,8.632-23.336L512,160.072v-20.856v-0.176v-20.856l-45.816-4.584
	c-1.856-8.24-4.8-16.056-8.632-23.336l28.472-34.8l-29.496-29.488l-33.456,27.376c-7.688-4.752-16.08-8.464-25.016-10.896L393.816,0
	h-41.712l-4.248,42.52c-8.904,2.448-17.304,6.112-24.984,10.856l-33.48-27.392L259.896,55.48l28.464,34.792
	c-3.832,7.28-6.776,15.104-8.632,23.336l-45.816,4.584v20.856v0.176v20.856l45.816,4.584c1.856,8.24,4.8,16.056,8.632,23.336
	l-28.464,34.792l29.496,29.496l33.48-27.392c7.68,4.744,16.072,8.408,24.984,10.856L352.104,278.264z M310.216,139.128
	c0-34.656,28.088-62.744,62.744-62.744s62.744,28.088,62.744,62.744s-28.088,62.744-62.744,62.744
	C338.304,201.872,310.216,173.784,310.216,139.128z"/>
<g>
</g>
<g>
</g>
<g>
</g>
<g>
</g>
<g>
</g>
<g>
</g>
<g>
</g>
<g>
</g>
<g>
</g>
<g>
</g>
<g>
</g>
<g>
</g>
<g>
</g>
<g>
</g>
<g>
</g>
</svg>
