<?xml version="1.0" encoding="iso-8859-1"?>
<!-- Generator: Adobe Illustrator 19.0.0, SVG Export Plug-In . SVG Version: 6.00 Build 0)  -->
<svg version="1.1" id="Capa_1" xmlns="http://www.w3.org/2000/svg" xmlns:xlink="http://www.w3.org/1999/xlink" x="0px" y="0px"
	 viewBox="0 0 512 512" style="enable-background:new 0 0 512 512;" xml:space="preserve">
<path style="fill:#EAC583;" d="M204.801,315.734L204.801,315.734c-24.175,10.743-52.625,10.743-76.8,0l0,0v-59.733h76.8V315.734z"/>
<path d="M166.401,332.267c-14.379,0-28.758-2.912-41.865-8.734c-3.083-1.37-5.069-4.429-5.069-7.8V256
	c0-4.713,3.821-8.533,8.533-8.533h76.8c4.713,0,8.533,3.821,8.533,8.533v59.733c0,3.371-1.986,6.43-5.069,7.8
	C195.159,329.355,180.78,332.267,166.401,332.267z M136.534,309.988c19.051,6.983,40.684,6.983,59.733,0v-45.455h-59.733
	C136.534,264.533,136.534,309.988,136.534,309.988z"/>
<path style="fill:#606060;" d="M324.268,426.668H8.533v-42.36c0-29.12,27.665-52.728,61.795-52.728l96.073-15.846l96.073,15.846
	c34.13,0,61.795,23.607,61.795,52.728V426.668z"/>
<path d="M324.268,435.201H8.533c-4.713,0-8.533-3.821-8.533-8.533v-42.359c0-33.57,31.159-60.925,69.609-61.258l95.402-15.738
	c0.921-0.15,1.858-0.15,2.779,0l95.399,15.738c38.454,0.334,69.613,27.688,69.613,61.258v42.359
	C332.802,431.38,328.981,435.201,324.268,435.201z M17.067,418.134h298.668v-33.825c0-24.371-23.892-44.196-53.262-44.196
	c-0.467,0-0.93-0.038-1.388-0.113l-94.684-15.616l-94.684,15.616c-0.46,0.075-0.925,0.113-1.39,0.113
	c-29.369,0-53.26,19.825-53.26,44.196L17.067,418.134L17.067,418.134z"/>
<path style="fill:#FFDD95;" d="M212.196,273.066h-91.593c-19.477,0-35.268-15.791-35.268-35.268v-75.666
	c0-42.415,34.385-76.8,76.8-76.8h8.533c42.415,0,76.8,34.385,76.8,76.8v75.666C247.468,257.276,231.677,273.066,212.196,273.066z"/>
<path d="M212.195,281.6h-91.592c-24.152,0-43.803-19.65-43.803-43.803v-75.665c0-47.053,38.282-85.333,85.334-85.333h8.533
	c47.053,0,85.334,38.282,85.334,85.333v75.665C256.002,261.95,236.349,281.6,212.195,281.6z M162.135,93.866
	c-37.642,0-68.267,30.625-68.267,68.267v75.665c0,14.742,11.994,26.736,26.736,26.736h91.592c14.744,0,26.74-11.994,26.74-26.736
	v-75.665c0-37.642-30.625-68.267-68.267-68.267C170.669,93.866,162.135,93.866,162.135,93.866z"/>
<polygon style="fill:#FFFFFF;" points="170.667,315.734 93.867,315.734 93.867,358.401 "/>
<path d="M93.867,366.933c-1.498,0-2.993-0.392-4.327-1.179c-2.607-1.533-4.207-4.329-4.207-7.354v-42.667
	c0-4.713,3.821-8.533,8.533-8.533h76.8c3.887,0,7.285,2.629,8.26,6.392c0.975,3.767-0.717,7.712-4.117,9.601l-76.8,42.667
	C96.722,366.576,95.294,366.933,93.867,366.933z M102.4,324.267v19.629l35.335-19.629H102.4z"/>
<polygon style="fill:#FFFFFF;" points="162.135,315.734 238.935,315.734 238.935,358.401 "/>
<path d="M238.935,366.933c-1.427,0-2.855-0.359-4.144-1.075l-76.8-42.667c-3.4-1.887-5.092-5.834-4.117-9.601
	c0.975-3.762,4.373-6.392,8.26-6.392h76.8c4.713,0,8.533,3.821,8.533,8.533V358.4c0,3.025-1.6,5.821-4.207,7.354
	C241.928,366.542,240.433,366.933,238.935,366.933z M195.066,324.267l35.335,19.629v-19.629H195.066z"/>
<path d="M452.269,247.467H290.134c-4.713,0-8.533-3.821-8.533-8.533c0-4.713,3.821-8.533,8.533-8.533h162.135
	c4.713,0,8.533,3.821,8.533,8.533C460.802,243.646,456.982,247.467,452.269,247.467z"/>
<path d="M452.269,136.533h-59.733c-4.713,0-8.533-3.821-8.533-8.533s3.821-8.533,8.533-8.533h59.733
	c4.713,0,8.533,3.821,8.533,8.533S456.982,136.533,452.269,136.533z"/>
<path d="M452.269,358.401h-59.733c-4.713,0-8.533-3.821-8.533-8.533s3.821-8.533,8.533-8.533h59.733
	c4.713,0,8.533,3.821,8.533,8.533S456.982,358.401,452.269,358.401z"/>
<path d="M392.535,358.401c-4.713,0-8.533-3.821-8.533-8.533V128c0-4.713,3.821-8.533,8.533-8.533c4.713,0,8.533,3.821,8.533,8.533
	v221.868C401.068,354.58,397.247,358.401,392.535,358.401z"/>
<ellipse style="fill:#ED5481;" cx="477.861" cy="128.018" rx="25.599" ry="25.599"/>
<path d="M477.886,162.148c-0.821,0-1.641-0.029-2.471-0.09c-9.091-0.654-17.388-4.808-23.355-11.7
	c-5.971-6.893-8.896-15.698-8.242-24.794c0.654-9.091,4.808-17.385,11.7-23.355c6.892-5.967,15.679-8.906,24.792-8.24
	c9.091,0.652,17.388,4.808,23.359,11.7c5.967,6.892,8.892,15.695,8.242,24.79C510.615,148.403,495.598,162.146,477.886,162.148z
	 M477.836,110.947c-4.096,0-8.012,1.454-11.142,4.164c-3.446,2.984-5.525,7.132-5.85,11.677c0,0.002,0,0.002,0,0.004
	c-0.329,4.544,1.133,8.946,4.117,12.391c2.984,3.446,7.134,5.525,11.679,5.852c9.384,0.681,17.571-6.414,18.246-15.803
	c0.329-4.544-1.137-8.946-4.121-12.391c-2.983-3.448-7.129-5.525-11.679-5.852C478.669,110.962,478.253,110.947,477.836,110.947z"/>
<ellipse style="fill:#ED5481;" cx="477.861" cy="238.952" rx="25.599" ry="25.599"/>
<path d="M477.915,273.079c-0.833,0-1.666-0.029-2.505-0.088c-18.767-1.35-32.942-17.719-31.596-36.49
	c0.654-9.094,4.808-17.39,11.7-23.359c6.892-5.967,15.683-8.888,24.792-8.24c9.091,0.652,17.388,4.808,23.359,11.7
	c5.967,6.892,8.892,15.695,8.242,24.79c-0.654,9.096-4.808,17.39-11.704,23.36C493.944,270.171,486.11,273.079,477.915,273.079z
	 M477.831,221.881c-4.096,0-8.012,1.454-11.142,4.164c-3.446,2.984-5.525,7.132-5.85,11.677
	c-0.675,9.387,6.412,17.571,15.796,18.246c4.529,0.332,8.951-1.135,12.396-4.119c3.446-2.984,5.525-7.132,5.85-11.677
	c0.329-4.548-1.137-8.951-4.121-12.396c-2.983-3.448-7.129-5.525-11.679-5.852C478.665,221.896,478.249,221.881,477.831,221.881z"/>
<ellipse style="fill:#ED5481;" cx="477.861" cy="349.886" rx="25.599" ry="25.599"/>
<path d="M477.915,384.013c-0.833,0-1.666-0.029-2.505-0.088c-9.091-0.654-17.388-4.808-23.359-11.7
	c-5.967-6.895-8.892-15.695-8.242-24.792l0,0c1.354-18.775,17.737-32.946,36.496-31.6c18.775,1.354,32.946,17.726,31.596,36.496
	c-0.654,9.091-4.808,17.388-11.7,23.355C493.944,381.105,486.11,384.013,477.915,384.013z M460.836,348.659
	c-0.329,4.546,1.137,8.946,4.121,12.391c2.984,3.446,7.129,5.525,11.679,5.85c4.554,0.363,8.946-1.138,12.391-4.117
	c3.446-2.983,5.525-7.134,5.85-11.679c0.679-9.384-6.408-17.571-15.796-18.246C469.619,332.188,461.511,339.271,460.836,348.659
	L460.836,348.659z"/>
<g>
</g>
<g>
</g>
<g>
</g>
<g>
</g>
<g>
</g>
<g>
</g>
<g>
</g>
<g>
</g>
<g>
</g>
<g>
</g>
<g>
</g>
<g>
</g>
<g>
</g>
<g>
</g>
<g>
</g>
</svg>
